<svg xmlns="http://www.w3.org/2000/svg" xmlns:xlink="http://www.w3.org/1999/xlink" width="2000" zoomAndPan="magnify" viewBox="0 0 1500 1499.999933" height="2000" preserveAspectRatio="xMidYMid meet" version="1.0"><defs><clipPath id="5b6541665b"><path d="M 0.597656 438.394531 L 1324 438.394531 L 1324 1275.679688 L 0.597656 1275.679688 Z M 0.597656 438.394531 " clip-rule="nonzero"/></clipPath><clipPath id="b47628baad"><path d="M 0.597656 442.144531 L 0.597656 514.75 C 0.597656 516.957031 2.097656 518.875 4.234375 519.410156 L 32.980469 526.597656 C 39.285156 528.175781 48.320312 532.648438 53.394531 536.707031 L 57.945312 540.347656 C 60.246094 542.1875 64.175781 546.335938 65.886719 548.734375 L 73.292969 559.105469 C 76.96875 564.25 83.03125 575.472656 85.320312 581.359375 L 352.441406 1268.75 C 353.261719 1270.855469 355.289062 1272.246094 357.550781 1272.246094 L 586.730469 1272.246094 C 588.984375 1272.246094 591 1270.839844 591.777344 1268.726562 L 639.457031 1139.316406 C 651.265625 1107.261719 679.410156 1021.074219 688.796875 988.226562 L 708.839844 918.070312 C 709.773438 914.808594 712.402344 909.121094 714.285156 906.296875 L 716.105469 903.566406 C 717.09375 902.085938 718.234375 899.363281 718.597656 897.621094 L 738.300781 803.496094 C 743.679688 777.796875 754.820312 710.246094 757.980469 684.179688 L 761.621094 654.140625 C 763.191406 641.207031 766.011719 606.882812 766.578125 593.867188 L 768.570312 548.066406 C 768.785156 543.105469 770.855469 538.398438 774.367188 534.886719 L 777.097656 532.15625 C 778.773438 530.480469 781.300781 529.179688 783.636719 528.789062 L 792.65625 527.289062 C 796.84375 526.589844 806.574219 525.785156 810.820312 525.785156 L 835.378906 525.785156 C 847.804688 525.785156 871.601562 529.117188 883.550781 532.53125 L 897.230469 536.441406 C 904.96875 538.648438 915.511719 544.488281 921.492188 549.867188 L 934.410156 561.496094 C 941.761719 568.113281 950.039062 580.097656 953.625 589.316406 L 963.222656 613.992188 C 968.382812 627.269531 972.816406 650.890625 972.816406 665.136719 L 972.816406 699.894531 C 972.816406 711.019531 970.050781 733.46875 967.355469 744.261719 L 964.625 755.183594 C 963.226562 760.777344 959.066406 770.820312 956.097656 775.761719 L 947.992188 789.273438 C 944.066406 795.816406 934.515625 808.046875 929.121094 813.445312 L 923.660156 818.90625 C 920.894531 821.671875 914.863281 826.222656 911.445312 828.121094 L 898.433594 835.347656 C 891.605469 839.140625 878.464844 843.804688 870.769531 845.160156 L 827.21875 852.847656 C 824.761719 853.28125 822.265625 853.433594 819.777344 853.300781 L 758.085938 850.054688 C 755.992188 849.945312 754.191406 851.507812 754 853.59375 L 751.039062 886.175781 C 750.832031 888.429688 752.03125 890.578125 754.050781 891.589844 L 765.261719 897.195312 C 773.300781 901.214844 784.5 910.082031 790.253906 916.988281 L 803.246094 932.578125 C 809.625 940.230469 820.816406 957.441406 825.226562 966.371094 L 954.460938 1228.066406 C 958.539062 1236.328125 967.640625 1248.042969 974.636719 1254.039062 L 981.007812 1259.5 C 984.390625 1262.402344 991.066406 1266.34375 995.238281 1267.910156 L 1005.875 1271.898438 C 1011.597656 1274.042969 1021.757812 1276.0625 1027.871094 1275.9375 L 1319.347656 1272.292969 C 1321.429688 1272.265625 1323.097656 1270.574219 1323.097656 1268.496094 L 1323.097656 1206.8125 C 1323.097656 1205.816406 1322.703125 1204.863281 1322 1204.160156 C 1321.296875 1203.457031 1320.34375 1203.0625 1319.347656 1203.0625 L 1264.226562 1203.0625 C 1261.738281 1203.0625 1259.261719 1202.714844 1256.871094 1202.03125 L 1247.730469 1199.417969 C 1241.140625 1197.535156 1229.664062 1192.226562 1223.960938 1188.425781 L 1213.089844 1181.179688 C 1207.671875 1177.570312 1197.859375 1169.03125 1193.535156 1164.164062 L 1183.3125 1152.664062 C 1178.640625 1147.410156 1168.488281 1134.171875 1164.628906 1128.300781 L 1116.730469 1055.5 C 1100.394531 1030.667969 1058.945312 978.71875 1038.359375 957.273438 L 997.261719 914.464844 C 995.703125 912.84375 995.335938 910.417969 996.339844 908.40625 L 996.628906 907.832031 C 997.679688 905.722656 999.679688 904.246094 1002.003906 903.859375 L 1020.980469 900.699219 C 1030.886719 899.046875 1052.585938 893.34375 1062.027344 889.910156 L 1072.039062 886.269531 C 1076.832031 884.527344 1086.785156 879.71875 1091.128906 877.042969 L 1110.261719 865.273438 C 1119.632812 859.503906 1137.492188 845.398438 1145.273438 837.613281 L 1155.539062 827.351562 C 1160.890625 822 1168.910156 810.871094 1172.296875 804.101562 L 1185.433594 777.824219 C 1192.3125 764.066406 1200.464844 737.671875 1202.542969 722.429688 L 1206.023438 696.933594 C 1207.78125 684.039062 1207.699219 658.84375 1205.859375 645.960938 L 1202.21875 620.464844 C 1200.347656 607.386719 1193.234375 583.621094 1187.609375 571.664062 L 1177.6875 550.578125 C 1173.511719 541.710938 1163.152344 525.875 1156.699219 518.5 L 1150.328125 511.21875 C 1147.265625 507.71875 1139.933594 500.921875 1136.214844 498.128906 L 1125.519531 490.109375 C 1120.3125 486.203125 1108.558594 479.300781 1102.609375 476.660156 L 1075.945312 464.808594 C 1062.632812 458.890625 1034.855469 450.652344 1020.472656 448.347656 L 961.953125 438.984375 C 959.488281 438.589844 956.996094 438.394531 954.5 438.394531 L 586.949219 438.394531 C 585.957031 438.394531 585 438.789062 584.296875 439.492188 C 583.59375 440.195312 583.199219 441.148438 583.199219 442.144531 L 583.199219 518.394531 C 583.199219 520.542969 584.78125 522.367188 586.910156 522.671875 L 596.597656 524.058594 C 602.902344 524.957031 613.917969 528.398438 619.613281 531.246094 L 625.074219 533.976562 C 627.921875 535.402344 632.601562 538.773438 634.855469 541.027344 L 639.976562 546.148438 C 642.890625 549.0625 646.089844 554.242188 647.394531 558.148438 L 649.886719 565.632812 C 651.1875 569.535156 652.382812 576.898438 652.382812 581.011719 L 652.382812 667.039062 C 652.382812 692.753906 647.507812 751.667969 643.28125 777.03125 L 638.730469 804.339844 C 636.746094 816.238281 630.234375 846.773438 627.1875 858.441406 L 619.757812 886.921875 C 616.589844 899.0625 606.992188 931.417969 603.023438 943.324219 L 593.109375 973.058594 C 588.714844 986.246094 575.890625 1018.625 570.066406 1031.25 L 541.074219 1094.058594 C 540.8125 1094.625 540.234375 1094.980469 539.609375 1094.953125 C 538.984375 1094.925781 538.4375 1094.527344 538.226562 1093.9375 L 320.34375 493 C 316.511719 482.4375 307.636719 469.460938 299.179688 462.0625 L 291.898438 455.691406 C 287.785156 452.089844 280.550781 448.210938 275.28125 446.769531 L 248.179688 439.378906 C 245.777344 438.726562 243.300781 438.394531 240.8125 438.394531 L 4.347656 438.394531 C 3.351562 438.394531 2.398438 438.789062 1.695312 439.492188 C 0.992188 440.195312 0.597656 441.148438 0.597656 442.144531 Z M 0.597656 442.144531 " clip-rule="nonzero"/></clipPath><clipPath id="f2b622ed84"><path d="M 0.597656 0.394531 L 1322 0.394531 L 1322 837.679688 L 0.597656 837.679688 Z M 0.597656 0.394531 " clip-rule="nonzero"/></clipPath><clipPath id="b2a6fe8125"><path d="M 0.597656 4.144531 L 0.597656 76.75 C 0.597656 78.957031 2.097656 80.875 4.234375 81.410156 L 32.980469 88.597656 C 39.285156 90.175781 48.320312 94.648438 53.394531 98.707031 L 57.945312 102.347656 C 60.246094 104.1875 64.175781 108.335938 65.886719 110.734375 L 73.292969 121.105469 C 76.96875 126.25 83.03125 137.472656 85.320312 143.359375 L 352.441406 830.75 C 353.261719 832.855469 355.289062 834.246094 357.550781 834.246094 L 586.730469 834.246094 C 588.984375 834.246094 591 832.839844 591.777344 830.726562 L 639.457031 701.316406 C 651.265625 669.261719 679.410156 583.074219 688.796875 550.226562 L 708.839844 480.070312 C 709.773438 476.808594 712.402344 471.121094 714.285156 468.296875 L 716.105469 465.566406 C 717.09375 464.085938 718.234375 461.363281 718.597656 459.621094 L 738.300781 365.496094 C 743.679688 339.796875 754.820312 272.246094 757.980469 246.179688 L 761.621094 216.140625 C 763.191406 203.207031 766.011719 168.882812 766.578125 155.867188 L 768.570312 110.066406 C 768.785156 105.105469 770.855469 100.398438 774.367188 96.886719 L 777.097656 94.15625 C 778.773438 92.480469 781.300781 91.179688 783.636719 90.789062 L 792.65625 89.289062 C 796.84375 88.589844 806.574219 87.785156 810.820312 87.785156 L 835.378906 87.785156 C 847.804688 87.785156 871.601562 91.117188 883.550781 94.53125 L 897.230469 98.441406 C 904.96875 100.648438 915.511719 106.488281 921.492188 111.867188 L 934.410156 123.496094 C 941.761719 130.113281 950.039062 142.097656 953.625 151.316406 L 963.222656 175.992188 C 968.382812 189.269531 972.816406 212.890625 972.816406 227.136719 L 972.816406 261.894531 C 972.816406 273.019531 970.050781 295.46875 967.355469 306.261719 L 964.625 317.183594 C 963.226562 322.777344 959.066406 332.820312 956.097656 337.761719 L 947.992188 351.273438 C 944.066406 357.816406 934.515625 370.046875 929.121094 375.445312 L 923.660156 380.90625 C 920.894531 383.671875 914.863281 388.222656 911.445312 390.121094 L 898.433594 397.347656 C 891.605469 401.140625 878.464844 405.804688 870.769531 407.160156 L 827.21875 414.847656 C 824.761719 415.28125 822.265625 415.433594 819.777344 415.300781 L 758.085938 412.054688 C 755.992188 411.945312 754.191406 413.507812 754 415.59375 L 751.039062 448.175781 C 750.832031 450.429688 752.03125 452.578125 754.050781 453.589844 L 765.261719 459.195312 C 773.300781 463.214844 784.5 472.082031 790.253906 478.988281 L 803.246094 494.578125 C 809.625 502.230469 820.816406 519.441406 825.226562 528.371094 L 954.460938 790.066406 C 958.539062 798.328125 967.640625 810.042969 974.636719 816.039062 L 981.007812 821.5 C 984.390625 824.402344 991.066406 828.34375 995.238281 829.910156 L 1005.875 833.898438 C 1011.597656 836.042969 1021.757812 838.0625 1027.871094 837.9375 L 1319.347656 834.292969 C 1321.429688 834.265625 1323.097656 832.574219 1323.097656 830.496094 L 1323.097656 768.8125 C 1323.097656 767.816406 1322.703125 766.863281 1322 766.160156 C 1321.296875 765.457031 1320.34375 765.0625 1319.347656 765.0625 L 1264.226562 765.0625 C 1261.738281 765.0625 1259.261719 764.714844 1256.871094 764.03125 L 1247.730469 761.417969 C 1241.140625 759.535156 1229.664062 754.226562 1223.960938 750.425781 L 1213.089844 743.179688 C 1207.671875 739.570312 1197.859375 731.03125 1193.535156 726.164062 L 1183.3125 714.664062 C 1178.640625 709.410156 1168.488281 696.171875 1164.628906 690.300781 L 1116.730469 617.5 C 1100.394531 592.667969 1058.945312 540.71875 1038.359375 519.273438 L 997.261719 476.464844 C 995.703125 474.84375 995.335938 472.417969 996.339844 470.40625 L 996.628906 469.832031 C 997.679688 467.722656 999.679688 466.246094 1002.003906 465.859375 L 1020.980469 462.699219 C 1030.886719 461.046875 1052.585938 455.34375 1062.027344 451.910156 L 1072.039062 448.269531 C 1076.832031 446.527344 1086.785156 441.71875 1091.128906 439.042969 L 1110.261719 427.273438 C 1119.632812 421.503906 1137.492188 407.398438 1145.273438 399.613281 L 1155.539062 389.351562 C 1160.890625 384 1168.910156 372.871094 1172.296875 366.101562 L 1185.433594 339.824219 C 1192.3125 326.066406 1200.464844 299.671875 1202.542969 284.429688 L 1206.023438 258.933594 C 1207.78125 246.039062 1207.699219 220.84375 1205.859375 207.960938 L 1202.21875 182.464844 C 1200.347656 169.386719 1193.234375 145.621094 1187.609375 133.664062 L 1177.6875 112.578125 C 1173.511719 103.710938 1163.152344 87.875 1156.699219 80.5 L 1150.328125 73.21875 C 1147.265625 69.71875 1139.933594 62.921875 1136.214844 60.128906 L 1125.519531 52.109375 C 1120.3125 48.203125 1108.558594 41.300781 1102.609375 38.660156 L 1075.945312 26.808594 C 1062.632812 20.890625 1034.855469 12.652344 1020.472656 10.347656 L 961.953125 0.984375 C 959.488281 0.589844 956.996094 0.394531 954.5 0.394531 L 586.949219 0.394531 C 585.957031 0.394531 585 0.789062 584.296875 1.492188 C 583.59375 2.195312 583.199219 3.148438 583.199219 4.144531 L 583.199219 80.394531 C 583.199219 82.542969 584.78125 84.367188 586.910156 84.671875 L 596.597656 86.058594 C 602.902344 86.957031 613.917969 90.398438 619.613281 93.246094 L 625.074219 95.976562 C 627.921875 97.402344 632.601562 100.773438 634.855469 103.027344 L 639.976562 108.148438 C 642.890625 111.0625 646.089844 116.242188 647.394531 120.148438 L 649.886719 127.632812 C 651.1875 131.535156 652.382812 138.898438 652.382812 143.011719 L 652.382812 229.039062 C 652.382812 254.753906 647.507812 313.667969 643.28125 339.03125 L 638.730469 366.339844 C 636.746094 378.238281 630.234375 408.773438 627.1875 420.441406 L 619.757812 448.921875 C 616.589844 461.0625 606.992188 493.417969 603.023438 505.324219 L 593.109375 535.058594 C 588.714844 548.246094 575.890625 580.625 570.066406 593.25 L 541.074219 656.058594 C 540.8125 656.625 540.234375 656.980469 539.609375 656.953125 C 538.984375 656.925781 538.4375 656.527344 538.226562 655.9375 L 320.34375 55 C 316.511719 44.4375 307.636719 31.460938 299.179688 24.0625 L 291.898438 17.691406 C 287.785156 14.089844 280.550781 10.210938 275.28125 8.769531 L 248.179688 1.378906 C 245.777344 0.726562 243.300781 0.394531 240.8125 0.394531 L 4.347656 0.394531 C 3.351562 0.394531 2.398438 0.789062 1.695312 1.492188 C 0.992188 2.195312 0.597656 3.148438 0.597656 4.144531 Z M 0.597656 4.144531 " clip-rule="nonzero"/></clipPath><clipPath id="e9575e6d7b"><rect x="0" width="1324" y="0" height="838"/></clipPath><clipPath id="c4c28ec1fb"><path d="M 714.007812 0.496094 L 1055.753906 0.496094 L 1055.753906 342.246094 L 714.007812 342.246094 Z M 714.007812 0.496094 " clip-rule="nonzero"/></clipPath><clipPath id="c0473d4da8"><path d="M 884.878906 0.496094 C 790.507812 0.496094 714.007812 77 714.007812 171.371094 C 714.007812 265.742188 790.507812 342.246094 884.878906 342.246094 C 979.25 342.246094 1055.753906 265.742188 1055.753906 171.371094 C 1055.753906 77 979.25 0.496094 884.878906 0.496094 Z M 884.878906 0.496094 " clip-rule="nonzero"/></clipPath><clipPath id="14f464123e"><path d="M 0.0078125 0.496094 L 341.753906 0.496094 L 341.753906 342.246094 L 0.0078125 342.246094 Z M 0.0078125 0.496094 " clip-rule="nonzero"/></clipPath><clipPath id="669f6f74be"><path d="M 170.878906 0.496094 C 76.507812 0.496094 0.0078125 77 0.0078125 171.371094 C 0.0078125 265.742188 76.507812 342.246094 170.878906 342.246094 C 265.25 342.246094 341.753906 265.742188 341.753906 171.371094 C 341.753906 77 265.25 0.496094 170.878906 0.496094 Z M 170.878906 0.496094 " clip-rule="nonzero"/></clipPath><clipPath id="34e2274d91"><rect x="0" width="342" y="0" height="343"/></clipPath><clipPath id="77d082fc03"><rect x="0" width="1325" y="0" height="1276"/></clipPath></defs><g transform="matrix(1, 0, 0, 1, 89, 112)"><g clip-path="url(#77d082fc03)"><g clip-path="url(#5b6541665b)"><g clip-path="url(#b47628baad)"><g transform="matrix(1, 0, 0, 1, 0.000000000000014211, 438)"><g clip-path="url(#e9575e6d7b)"><g clip-path="url(#f2b622ed84)"><g clip-path="url(#b2a6fe8125)"><path fill="#29b554" d="M 0.597656 0.394531 L 1321.304688 0.394531 L 1321.304688 837.503906 L 0.597656 837.503906 Z M 0.597656 0.394531 " fill-opacity="1" fill-rule="nonzero"/></g></g></g></g></g></g><g clip-path="url(#c4c28ec1fb)"><g clip-path="url(#c0473d4da8)"><g transform="matrix(1, 0, 0, 1, 714, 0.000000000000113687)"><g clip-path="url(#34e2274d91)"><g clip-path="url(#14f464123e)"><g clip-path="url(#669f6f74be)"><path fill="#29b554" d="M 0.0078125 0.496094 L 341.753906 0.496094 L 341.753906 342.246094 L 0.0078125 342.246094 Z M 0.0078125 0.496094 " fill-opacity="1" fill-rule="nonzero"/></g></g></g></g></g></g></g></g></svg>